<mxfile host="Electron" modified="2023-05-21T08:24:10.781Z" agent="Mozilla/5.0 (Windows NT 10.0; Win64; x64) AppleWebKit/537.36 (KHTML, like Gecko) draw.io/21.2.8 Chrome/112.0.5615.165 Electron/24.2.0 Safari/537.36" etag="qbUrIu9utPf_KsMehopt" version="21.2.8" type="device">
  <diagram name="第1頁" id="AanB8yNyS1pnc1NzVk0f">
    <mxGraphModel dx="1219" dy="826" grid="1" gridSize="10" guides="1" tooltips="1" connect="1" arrows="1" fold="1" page="1" pageScale="1" pageWidth="1654" pageHeight="1169" math="0" shadow="0">
      <root>
        <mxCell id="0" />
        <mxCell id="1" parent="0" />
        <mxCell id="gfehp5p-V9e-1P1ylHKR-1" value="" style="shape=table;startSize=0;container=1;collapsible=0;childLayout=tableLayout;fontSize=16;" parent="1" vertex="1">
          <mxGeometry x="507" y="240" width="330" height="40" as="geometry" />
        </mxCell>
        <mxCell id="gfehp5p-V9e-1P1ylHKR-2" value="" style="shape=tableRow;horizontal=0;startSize=0;swimlaneHead=0;swimlaneBody=0;strokeColor=inherit;top=0;left=0;bottom=0;right=0;collapsible=0;dropTarget=0;fillColor=none;points=[[0,0.5],[1,0.5]];portConstraint=eastwest;fontSize=16;" parent="gfehp5p-V9e-1P1ylHKR-1" vertex="1">
          <mxGeometry width="330" height="40" as="geometry" />
        </mxCell>
        <mxCell id="gfehp5p-V9e-1P1ylHKR-3" value="" style="shape=partialRectangle;html=1;whiteSpace=wrap;connectable=0;strokeColor=inherit;overflow=hidden;fillColor=none;top=0;left=0;bottom=0;right=0;pointerEvents=1;fontSize=16;" parent="gfehp5p-V9e-1P1ylHKR-2" vertex="1">
          <mxGeometry width="15" height="40" as="geometry">
            <mxRectangle width="15" height="40" as="alternateBounds" />
          </mxGeometry>
        </mxCell>
        <mxCell id="gfehp5p-V9e-1P1ylHKR-4" value="20" style="shape=partialRectangle;html=1;whiteSpace=wrap;connectable=0;strokeColor=inherit;overflow=hidden;fillColor=none;top=0;left=0;bottom=0;right=0;pointerEvents=1;fontSize=16;" parent="gfehp5p-V9e-1P1ylHKR-2" vertex="1">
          <mxGeometry x="15" width="48" height="40" as="geometry">
            <mxRectangle width="48" height="40" as="alternateBounds" />
          </mxGeometry>
        </mxCell>
        <mxCell id="gfehp5p-V9e-1P1ylHKR-5" value="" style="shape=partialRectangle;html=1;whiteSpace=wrap;connectable=0;strokeColor=inherit;overflow=hidden;fillColor=none;top=0;left=0;bottom=0;right=0;pointerEvents=1;fontSize=16;" parent="gfehp5p-V9e-1P1ylHKR-2" vertex="1">
          <mxGeometry x="63" width="15" height="40" as="geometry">
            <mxRectangle width="15" height="40" as="alternateBounds" />
          </mxGeometry>
        </mxCell>
        <mxCell id="gfehp5p-V9e-1P1ylHKR-22" value="26" style="shape=partialRectangle;html=1;whiteSpace=wrap;connectable=0;strokeColor=inherit;overflow=hidden;fillColor=none;top=0;left=0;bottom=0;right=0;pointerEvents=1;fontSize=16;" parent="gfehp5p-V9e-1P1ylHKR-2" vertex="1">
          <mxGeometry x="78" width="48" height="40" as="geometry">
            <mxRectangle width="48" height="40" as="alternateBounds" />
          </mxGeometry>
        </mxCell>
        <mxCell id="gfehp5p-V9e-1P1ylHKR-29" style="shape=partialRectangle;html=1;whiteSpace=wrap;connectable=0;strokeColor=inherit;overflow=hidden;fillColor=none;top=0;left=0;bottom=0;right=0;pointerEvents=1;fontSize=16;" parent="gfehp5p-V9e-1P1ylHKR-2" vertex="1">
          <mxGeometry x="126" width="15" height="40" as="geometry">
            <mxRectangle width="15" height="40" as="alternateBounds" />
          </mxGeometry>
        </mxCell>
        <mxCell id="gfehp5p-V9e-1P1ylHKR-30" value="32" style="shape=partialRectangle;html=1;whiteSpace=wrap;connectable=0;strokeColor=inherit;overflow=hidden;fillColor=none;top=0;left=0;bottom=0;right=0;pointerEvents=1;fontSize=16;" parent="gfehp5p-V9e-1P1ylHKR-2" vertex="1">
          <mxGeometry x="141" width="48" height="40" as="geometry">
            <mxRectangle width="48" height="40" as="alternateBounds" />
          </mxGeometry>
        </mxCell>
        <mxCell id="gfehp5p-V9e-1P1ylHKR-31" style="shape=partialRectangle;html=1;whiteSpace=wrap;connectable=0;strokeColor=inherit;overflow=hidden;fillColor=none;top=0;left=0;bottom=0;right=0;pointerEvents=1;fontSize=16;" parent="gfehp5p-V9e-1P1ylHKR-2" vertex="1">
          <mxGeometry x="189" width="15" height="40" as="geometry">
            <mxRectangle width="15" height="40" as="alternateBounds" />
          </mxGeometry>
        </mxCell>
        <mxCell id="gfehp5p-V9e-1P1ylHKR-32" value="38" style="shape=partialRectangle;html=1;whiteSpace=wrap;connectable=0;strokeColor=inherit;overflow=hidden;fillColor=none;top=0;left=0;bottom=0;right=0;pointerEvents=1;fontSize=16;" parent="gfehp5p-V9e-1P1ylHKR-2" vertex="1">
          <mxGeometry x="204" width="48" height="40" as="geometry">
            <mxRectangle width="48" height="40" as="alternateBounds" />
          </mxGeometry>
        </mxCell>
        <mxCell id="gfehp5p-V9e-1P1ylHKR-33" style="shape=partialRectangle;html=1;whiteSpace=wrap;connectable=0;strokeColor=inherit;overflow=hidden;fillColor=none;top=0;left=0;bottom=0;right=0;pointerEvents=1;fontSize=16;" parent="gfehp5p-V9e-1P1ylHKR-2" vertex="1">
          <mxGeometry x="252" width="15" height="40" as="geometry">
            <mxRectangle width="15" height="40" as="alternateBounds" />
          </mxGeometry>
        </mxCell>
        <mxCell id="DPHD8KvLjeDx3O2cw2pP-25" value="44" style="shape=partialRectangle;html=1;whiteSpace=wrap;connectable=0;strokeColor=#666666;overflow=hidden;fillColor=#f5f5f5;top=0;left=0;bottom=0;right=0;pointerEvents=1;fontSize=16;fontColor=#333333;" parent="gfehp5p-V9e-1P1ylHKR-2" vertex="1">
          <mxGeometry x="267" width="48" height="40" as="geometry">
            <mxRectangle width="48" height="40" as="alternateBounds" />
          </mxGeometry>
        </mxCell>
        <mxCell id="DPHD8KvLjeDx3O2cw2pP-26" style="shape=partialRectangle;html=1;whiteSpace=wrap;connectable=0;strokeColor=#666666;overflow=hidden;fillColor=#f5f5f5;top=0;left=0;bottom=0;right=0;pointerEvents=1;fontSize=16;fontColor=#333333;" parent="gfehp5p-V9e-1P1ylHKR-2" vertex="1">
          <mxGeometry x="315" width="15" height="40" as="geometry">
            <mxRectangle width="15" height="40" as="alternateBounds" />
          </mxGeometry>
        </mxCell>
        <mxCell id="gfehp5p-V9e-1P1ylHKR-23" value="" style="shape=table;startSize=0;container=1;collapsible=0;childLayout=tableLayout;fontSize=16;" parent="1" vertex="1">
          <mxGeometry x="50" y="360" width="190" height="40" as="geometry" />
        </mxCell>
        <mxCell id="gfehp5p-V9e-1P1ylHKR-24" value="" style="shape=tableRow;horizontal=0;startSize=0;swimlaneHead=0;swimlaneBody=0;strokeColor=inherit;top=0;left=0;bottom=0;right=0;collapsible=0;dropTarget=0;fillColor=none;points=[[0,0.5],[1,0.5]];portConstraint=eastwest;fontSize=16;" parent="gfehp5p-V9e-1P1ylHKR-23" vertex="1">
          <mxGeometry width="190" height="40" as="geometry" />
        </mxCell>
        <mxCell id="gfehp5p-V9e-1P1ylHKR-25" value="16" style="shape=partialRectangle;html=1;whiteSpace=wrap;connectable=0;strokeColor=inherit;overflow=hidden;fillColor=none;top=0;left=0;bottom=0;right=0;pointerEvents=1;fontSize=16;" parent="gfehp5p-V9e-1P1ylHKR-24" vertex="1">
          <mxGeometry width="48" height="40" as="geometry">
            <mxRectangle width="48" height="40" as="alternateBounds" />
          </mxGeometry>
        </mxCell>
        <mxCell id="gfehp5p-V9e-1P1ylHKR-26" value="18" style="shape=partialRectangle;html=1;whiteSpace=wrap;connectable=0;strokeColor=inherit;overflow=hidden;fillColor=none;top=0;left=0;bottom=0;right=0;pointerEvents=1;fontSize=16;" parent="gfehp5p-V9e-1P1ylHKR-24" vertex="1">
          <mxGeometry x="48" width="47" height="40" as="geometry">
            <mxRectangle width="47" height="40" as="alternateBounds" />
          </mxGeometry>
        </mxCell>
        <mxCell id="gfehp5p-V9e-1P1ylHKR-27" value="" style="shape=partialRectangle;html=1;whiteSpace=wrap;connectable=0;overflow=hidden;top=0;left=0;bottom=0;right=0;pointerEvents=1;fontSize=16;fillColor=none;strokeColor=inherit;" parent="gfehp5p-V9e-1P1ylHKR-24" vertex="1">
          <mxGeometry x="95" width="48" height="40" as="geometry">
            <mxRectangle width="48" height="40" as="alternateBounds" />
          </mxGeometry>
        </mxCell>
        <mxCell id="gfehp5p-V9e-1P1ylHKR-28" value="" style="shape=partialRectangle;html=1;whiteSpace=wrap;connectable=0;strokeColor=inherit;overflow=hidden;fillColor=none;top=0;left=0;bottom=0;right=0;pointerEvents=1;fontSize=16;" parent="gfehp5p-V9e-1P1ylHKR-24" vertex="1">
          <mxGeometry x="143" width="47" height="40" as="geometry">
            <mxRectangle width="47" height="40" as="alternateBounds" />
          </mxGeometry>
        </mxCell>
        <mxCell id="gfehp5p-V9e-1P1ylHKR-34" value="" style="endArrow=classic;html=1;rounded=0;exitX=0.027;exitY=0.992;exitDx=0;exitDy=0;exitPerimeter=0;entryX=0.497;entryY=0.012;entryDx=0;entryDy=0;entryPerimeter=0;strokeWidth=1;" parent="1" source="gfehp5p-V9e-1P1ylHKR-2" target="gfehp5p-V9e-1P1ylHKR-24" edge="1">
          <mxGeometry width="50" height="50" relative="1" as="geometry">
            <mxPoint x="370" y="550" as="sourcePoint" />
            <mxPoint x="420" y="500" as="targetPoint" />
          </mxGeometry>
        </mxCell>
        <mxCell id="gfehp5p-V9e-1P1ylHKR-36" value="&lt;font style=&quot;font-size: 16px;&quot;&gt;Root&lt;/font&gt;" style="rounded=0;whiteSpace=wrap;html=1;" parent="1" vertex="1">
          <mxGeometry x="948.5" y="40" width="50" height="40" as="geometry" />
        </mxCell>
        <mxCell id="9ntbfwSOvVafJQgxA-3O-2" value="&lt;font style=&quot;font-size: 16px;&quot;&gt;Internal Node Overflow&lt;br&gt;&lt;/font&gt;" style="text;html=1;strokeColor=none;fillColor=none;align=center;verticalAlign=middle;whiteSpace=wrap;rounded=0;" parent="1" vertex="1">
          <mxGeometry x="380" y="210" width="300" height="30" as="geometry" />
        </mxCell>
        <mxCell id="9ntbfwSOvVafJQgxA-3O-5" value="" style="shape=table;startSize=0;container=1;collapsible=0;childLayout=tableLayout;fontSize=16;" parent="1" vertex="1">
          <mxGeometry x="470" y="360" width="190" height="40" as="geometry" />
        </mxCell>
        <mxCell id="9ntbfwSOvVafJQgxA-3O-6" value="" style="shape=tableRow;horizontal=0;startSize=0;swimlaneHead=0;swimlaneBody=0;strokeColor=inherit;top=0;left=0;bottom=0;right=0;collapsible=0;dropTarget=0;fillColor=none;points=[[0,0.5],[1,0.5]];portConstraint=eastwest;fontSize=16;" parent="9ntbfwSOvVafJQgxA-3O-5" vertex="1">
          <mxGeometry width="190" height="40" as="geometry" />
        </mxCell>
        <mxCell id="9ntbfwSOvVafJQgxA-3O-7" value="26" style="shape=partialRectangle;html=1;whiteSpace=wrap;connectable=0;strokeColor=inherit;overflow=hidden;fillColor=none;top=0;left=0;bottom=0;right=0;pointerEvents=1;fontSize=16;" parent="9ntbfwSOvVafJQgxA-3O-6" vertex="1">
          <mxGeometry width="48" height="40" as="geometry">
            <mxRectangle width="48" height="40" as="alternateBounds" />
          </mxGeometry>
        </mxCell>
        <mxCell id="9ntbfwSOvVafJQgxA-3O-8" value="28" style="shape=partialRectangle;html=1;whiteSpace=wrap;connectable=0;strokeColor=inherit;overflow=hidden;fillColor=none;top=0;left=0;bottom=0;right=0;pointerEvents=1;fontSize=16;" parent="9ntbfwSOvVafJQgxA-3O-6" vertex="1">
          <mxGeometry x="48" width="47" height="40" as="geometry">
            <mxRectangle width="47" height="40" as="alternateBounds" />
          </mxGeometry>
        </mxCell>
        <mxCell id="9ntbfwSOvVafJQgxA-3O-9" value="30" style="shape=partialRectangle;html=1;whiteSpace=wrap;connectable=0;overflow=hidden;top=0;left=0;bottom=0;right=0;pointerEvents=1;fontSize=16;fillColor=none;strokeColor=inherit;" parent="9ntbfwSOvVafJQgxA-3O-6" vertex="1">
          <mxGeometry x="95" width="48" height="40" as="geometry">
            <mxRectangle width="48" height="40" as="alternateBounds" />
          </mxGeometry>
        </mxCell>
        <mxCell id="9ntbfwSOvVafJQgxA-3O-10" value="" style="shape=partialRectangle;html=1;whiteSpace=wrap;connectable=0;strokeColor=inherit;overflow=hidden;fillColor=none;top=0;left=0;bottom=0;right=0;pointerEvents=1;fontSize=16;" parent="9ntbfwSOvVafJQgxA-3O-6" vertex="1">
          <mxGeometry x="143" width="47" height="40" as="geometry">
            <mxRectangle width="47" height="40" as="alternateBounds" />
          </mxGeometry>
        </mxCell>
        <mxCell id="DPHD8KvLjeDx3O2cw2pP-1" value="" style="shape=table;startSize=0;container=1;collapsible=0;childLayout=tableLayout;fontSize=16;" parent="1" vertex="1">
          <mxGeometry x="680" y="360" width="190" height="40" as="geometry" />
        </mxCell>
        <mxCell id="DPHD8KvLjeDx3O2cw2pP-2" value="" style="shape=tableRow;horizontal=0;startSize=0;swimlaneHead=0;swimlaneBody=0;strokeColor=inherit;top=0;left=0;bottom=0;right=0;collapsible=0;dropTarget=0;fillColor=none;points=[[0,0.5],[1,0.5]];portConstraint=eastwest;fontSize=16;" parent="DPHD8KvLjeDx3O2cw2pP-1" vertex="1">
          <mxGeometry width="190" height="40" as="geometry" />
        </mxCell>
        <mxCell id="DPHD8KvLjeDx3O2cw2pP-3" value="32" style="shape=partialRectangle;html=1;whiteSpace=wrap;connectable=0;strokeColor=inherit;overflow=hidden;fillColor=none;top=0;left=0;bottom=0;right=0;pointerEvents=1;fontSize=16;" parent="DPHD8KvLjeDx3O2cw2pP-2" vertex="1">
          <mxGeometry width="48" height="40" as="geometry">
            <mxRectangle width="48" height="40" as="alternateBounds" />
          </mxGeometry>
        </mxCell>
        <mxCell id="DPHD8KvLjeDx3O2cw2pP-4" value="34" style="shape=partialRectangle;html=1;whiteSpace=wrap;connectable=0;strokeColor=inherit;overflow=hidden;fillColor=none;top=0;left=0;bottom=0;right=0;pointerEvents=1;fontSize=16;" parent="DPHD8KvLjeDx3O2cw2pP-2" vertex="1">
          <mxGeometry x="48" width="47" height="40" as="geometry">
            <mxRectangle width="47" height="40" as="alternateBounds" />
          </mxGeometry>
        </mxCell>
        <mxCell id="DPHD8KvLjeDx3O2cw2pP-5" value="36" style="shape=partialRectangle;html=1;whiteSpace=wrap;connectable=0;overflow=hidden;top=0;left=0;bottom=0;right=0;pointerEvents=1;fontSize=16;fillColor=none;strokeColor=inherit;" parent="DPHD8KvLjeDx3O2cw2pP-2" vertex="1">
          <mxGeometry x="95" width="48" height="40" as="geometry">
            <mxRectangle width="48" height="40" as="alternateBounds" />
          </mxGeometry>
        </mxCell>
        <mxCell id="DPHD8KvLjeDx3O2cw2pP-6" value="" style="shape=partialRectangle;html=1;whiteSpace=wrap;connectable=0;strokeColor=inherit;overflow=hidden;fillColor=none;top=0;left=0;bottom=0;right=0;pointerEvents=1;fontSize=16;" parent="DPHD8KvLjeDx3O2cw2pP-2" vertex="1">
          <mxGeometry x="143" width="47" height="40" as="geometry">
            <mxRectangle width="47" height="40" as="alternateBounds" />
          </mxGeometry>
        </mxCell>
        <mxCell id="DPHD8KvLjeDx3O2cw2pP-7" value="" style="shape=table;startSize=0;container=1;collapsible=0;childLayout=tableLayout;fontSize=16;" parent="1" vertex="1">
          <mxGeometry x="890" y="360" width="190" height="40" as="geometry" />
        </mxCell>
        <mxCell id="DPHD8KvLjeDx3O2cw2pP-8" value="" style="shape=tableRow;horizontal=0;startSize=0;swimlaneHead=0;swimlaneBody=0;strokeColor=inherit;top=0;left=0;bottom=0;right=0;collapsible=0;dropTarget=0;fillColor=none;points=[[0,0.5],[1,0.5]];portConstraint=eastwest;fontSize=16;" parent="DPHD8KvLjeDx3O2cw2pP-7" vertex="1">
          <mxGeometry width="190" height="40" as="geometry" />
        </mxCell>
        <mxCell id="DPHD8KvLjeDx3O2cw2pP-9" value="38" style="shape=partialRectangle;html=1;whiteSpace=wrap;connectable=0;strokeColor=inherit;overflow=hidden;fillColor=none;top=0;left=0;bottom=0;right=0;pointerEvents=1;fontSize=16;" parent="DPHD8KvLjeDx3O2cw2pP-8" vertex="1">
          <mxGeometry width="48" height="40" as="geometry">
            <mxRectangle width="48" height="40" as="alternateBounds" />
          </mxGeometry>
        </mxCell>
        <mxCell id="DPHD8KvLjeDx3O2cw2pP-10" value="40" style="shape=partialRectangle;html=1;whiteSpace=wrap;connectable=0;strokeColor=inherit;overflow=hidden;fillColor=none;top=0;left=0;bottom=0;right=0;pointerEvents=1;fontSize=16;" parent="DPHD8KvLjeDx3O2cw2pP-8" vertex="1">
          <mxGeometry x="48" width="47" height="40" as="geometry">
            <mxRectangle width="47" height="40" as="alternateBounds" />
          </mxGeometry>
        </mxCell>
        <mxCell id="DPHD8KvLjeDx3O2cw2pP-11" value="42" style="shape=partialRectangle;html=1;whiteSpace=wrap;connectable=0;overflow=hidden;top=0;left=0;bottom=0;right=0;pointerEvents=1;fontSize=16;fillColor=none;strokeColor=inherit;" parent="DPHD8KvLjeDx3O2cw2pP-8" vertex="1">
          <mxGeometry x="95" width="48" height="40" as="geometry">
            <mxRectangle width="48" height="40" as="alternateBounds" />
          </mxGeometry>
        </mxCell>
        <mxCell id="DPHD8KvLjeDx3O2cw2pP-12" value="" style="shape=partialRectangle;html=1;whiteSpace=wrap;connectable=0;strokeColor=inherit;overflow=hidden;fillColor=none;top=0;left=0;bottom=0;right=0;pointerEvents=1;fontSize=16;" parent="DPHD8KvLjeDx3O2cw2pP-8" vertex="1">
          <mxGeometry x="143" width="47" height="40" as="geometry">
            <mxRectangle width="47" height="40" as="alternateBounds" />
          </mxGeometry>
        </mxCell>
        <mxCell id="DPHD8KvLjeDx3O2cw2pP-19" value="" style="shape=table;startSize=0;container=1;collapsible=0;childLayout=tableLayout;fontSize=16;" parent="1" vertex="1">
          <mxGeometry x="260" y="360" width="190" height="40" as="geometry" />
        </mxCell>
        <mxCell id="DPHD8KvLjeDx3O2cw2pP-20" value="" style="shape=tableRow;horizontal=0;startSize=0;swimlaneHead=0;swimlaneBody=0;strokeColor=inherit;top=0;left=0;bottom=0;right=0;collapsible=0;dropTarget=0;fillColor=none;points=[[0,0.5],[1,0.5]];portConstraint=eastwest;fontSize=16;" parent="DPHD8KvLjeDx3O2cw2pP-19" vertex="1">
          <mxGeometry width="190" height="40" as="geometry" />
        </mxCell>
        <mxCell id="DPHD8KvLjeDx3O2cw2pP-21" value="20" style="shape=partialRectangle;html=1;whiteSpace=wrap;connectable=0;strokeColor=inherit;overflow=hidden;fillColor=none;top=0;left=0;bottom=0;right=0;pointerEvents=1;fontSize=16;" parent="DPHD8KvLjeDx3O2cw2pP-20" vertex="1">
          <mxGeometry width="48" height="40" as="geometry">
            <mxRectangle width="48" height="40" as="alternateBounds" />
          </mxGeometry>
        </mxCell>
        <mxCell id="DPHD8KvLjeDx3O2cw2pP-22" value="22" style="shape=partialRectangle;html=1;whiteSpace=wrap;connectable=0;strokeColor=inherit;overflow=hidden;fillColor=none;top=0;left=0;bottom=0;right=0;pointerEvents=1;fontSize=16;" parent="DPHD8KvLjeDx3O2cw2pP-20" vertex="1">
          <mxGeometry x="48" width="47" height="40" as="geometry">
            <mxRectangle width="47" height="40" as="alternateBounds" />
          </mxGeometry>
        </mxCell>
        <mxCell id="DPHD8KvLjeDx3O2cw2pP-23" value="24" style="shape=partialRectangle;html=1;whiteSpace=wrap;connectable=0;overflow=hidden;top=0;left=0;bottom=0;right=0;pointerEvents=1;fontSize=16;fillColor=none;strokeColor=inherit;" parent="DPHD8KvLjeDx3O2cw2pP-20" vertex="1">
          <mxGeometry x="95" width="48" height="40" as="geometry">
            <mxRectangle width="48" height="40" as="alternateBounds" />
          </mxGeometry>
        </mxCell>
        <mxCell id="DPHD8KvLjeDx3O2cw2pP-24" value="" style="shape=partialRectangle;html=1;whiteSpace=wrap;connectable=0;strokeColor=inherit;overflow=hidden;fillColor=none;top=0;left=0;bottom=0;right=0;pointerEvents=1;fontSize=16;" parent="DPHD8KvLjeDx3O2cw2pP-20" vertex="1">
          <mxGeometry x="143" width="47" height="40" as="geometry">
            <mxRectangle width="47" height="40" as="alternateBounds" />
          </mxGeometry>
        </mxCell>
        <mxCell id="DPHD8KvLjeDx3O2cw2pP-27" value="" style="endArrow=classic;html=1;rounded=0;entryX=0.498;entryY=0.012;entryDx=0;entryDy=0;entryPerimeter=0;exitX=0.217;exitY=1.015;exitDx=0;exitDy=0;exitPerimeter=0;" parent="1" source="gfehp5p-V9e-1P1ylHKR-2" target="DPHD8KvLjeDx3O2cw2pP-20" edge="1">
          <mxGeometry width="50" height="50" relative="1" as="geometry">
            <mxPoint x="510" y="370" as="sourcePoint" />
            <mxPoint x="560" y="320" as="targetPoint" />
          </mxGeometry>
        </mxCell>
        <mxCell id="DPHD8KvLjeDx3O2cw2pP-28" value="" style="endArrow=classic;html=1;rounded=0;exitX=0.405;exitY=0.998;exitDx=0;exitDy=0;exitPerimeter=0;entryX=0.496;entryY=-0.028;entryDx=0;entryDy=0;entryPerimeter=0;" parent="1" source="gfehp5p-V9e-1P1ylHKR-2" target="9ntbfwSOvVafJQgxA-3O-6" edge="1">
          <mxGeometry width="50" height="50" relative="1" as="geometry">
            <mxPoint x="460" y="360" as="sourcePoint" />
            <mxPoint x="570" y="350" as="targetPoint" />
          </mxGeometry>
        </mxCell>
        <mxCell id="DPHD8KvLjeDx3O2cw2pP-29" value="" style="endArrow=classic;html=1;rounded=0;exitX=0.595;exitY=0.998;exitDx=0;exitDy=0;exitPerimeter=0;entryX=0.499;entryY=-0.015;entryDx=0;entryDy=0;entryPerimeter=0;" parent="1" source="gfehp5p-V9e-1P1ylHKR-2" target="DPHD8KvLjeDx3O2cw2pP-2" edge="1">
          <mxGeometry width="50" height="50" relative="1" as="geometry">
            <mxPoint x="710" y="360" as="sourcePoint" />
            <mxPoint x="760" y="310" as="targetPoint" />
          </mxGeometry>
        </mxCell>
        <mxCell id="DPHD8KvLjeDx3O2cw2pP-30" value="" style="endArrow=classic;html=1;rounded=0;exitX=0.784;exitY=1.005;exitDx=0;exitDy=0;exitPerimeter=0;entryX=0.501;entryY=-0.008;entryDx=0;entryDy=0;entryPerimeter=0;" parent="1" source="gfehp5p-V9e-1P1ylHKR-2" target="DPHD8KvLjeDx3O2cw2pP-8" edge="1">
          <mxGeometry width="50" height="50" relative="1" as="geometry">
            <mxPoint x="710" y="360" as="sourcePoint" />
            <mxPoint x="890" y="350" as="targetPoint" />
          </mxGeometry>
        </mxCell>
        <mxCell id="pHo-uAJ-a0RJnJzjXzOe-1" value="" style="shape=table;startSize=0;container=1;collapsible=0;childLayout=tableLayout;fontSize=16;" vertex="1" parent="1">
          <mxGeometry x="1100" y="360" width="190" height="40" as="geometry" />
        </mxCell>
        <mxCell id="pHo-uAJ-a0RJnJzjXzOe-2" value="" style="shape=tableRow;horizontal=0;startSize=0;swimlaneHead=0;swimlaneBody=0;strokeColor=inherit;top=0;left=0;bottom=0;right=0;collapsible=0;dropTarget=0;fillColor=none;points=[[0,0.5],[1,0.5]];portConstraint=eastwest;fontSize=16;" vertex="1" parent="pHo-uAJ-a0RJnJzjXzOe-1">
          <mxGeometry width="190" height="40" as="geometry" />
        </mxCell>
        <mxCell id="pHo-uAJ-a0RJnJzjXzOe-3" value="44" style="shape=partialRectangle;html=1;whiteSpace=wrap;connectable=0;strokeColor=inherit;overflow=hidden;fillColor=none;top=0;left=0;bottom=0;right=0;pointerEvents=1;fontSize=16;" vertex="1" parent="pHo-uAJ-a0RJnJzjXzOe-2">
          <mxGeometry width="48" height="40" as="geometry">
            <mxRectangle width="48" height="40" as="alternateBounds" />
          </mxGeometry>
        </mxCell>
        <mxCell id="pHo-uAJ-a0RJnJzjXzOe-4" value="46" style="shape=partialRectangle;html=1;whiteSpace=wrap;connectable=0;strokeColor=inherit;overflow=hidden;fillColor=none;top=0;left=0;bottom=0;right=0;pointerEvents=1;fontSize=16;" vertex="1" parent="pHo-uAJ-a0RJnJzjXzOe-2">
          <mxGeometry x="48" width="47" height="40" as="geometry">
            <mxRectangle width="47" height="40" as="alternateBounds" />
          </mxGeometry>
        </mxCell>
        <mxCell id="pHo-uAJ-a0RJnJzjXzOe-5" value="48" style="shape=partialRectangle;html=1;whiteSpace=wrap;connectable=0;overflow=hidden;top=0;left=0;bottom=0;right=0;pointerEvents=1;fontSize=16;fillColor=none;strokeColor=inherit;" vertex="1" parent="pHo-uAJ-a0RJnJzjXzOe-2">
          <mxGeometry x="95" width="48" height="40" as="geometry">
            <mxRectangle width="48" height="40" as="alternateBounds" />
          </mxGeometry>
        </mxCell>
        <mxCell id="pHo-uAJ-a0RJnJzjXzOe-6" value="" style="shape=partialRectangle;html=1;whiteSpace=wrap;connectable=0;strokeColor=inherit;overflow=hidden;fillColor=none;top=0;left=0;bottom=0;right=0;pointerEvents=1;fontSize=16;" vertex="1" parent="pHo-uAJ-a0RJnJzjXzOe-2">
          <mxGeometry x="143" width="47" height="40" as="geometry">
            <mxRectangle width="47" height="40" as="alternateBounds" />
          </mxGeometry>
        </mxCell>
        <mxCell id="pHo-uAJ-a0RJnJzjXzOe-7" value="" style="endArrow=classic;html=1;rounded=0;exitX=0.978;exitY=1.035;exitDx=0;exitDy=0;exitPerimeter=0;entryX=0.617;entryY=-0.045;entryDx=0;entryDy=0;entryPerimeter=0;" edge="1" parent="1" source="gfehp5p-V9e-1P1ylHKR-1" target="pHo-uAJ-a0RJnJzjXzOe-2">
          <mxGeometry width="50" height="50" relative="1" as="geometry">
            <mxPoint x="669" y="330" as="sourcePoint" />
            <mxPoint x="995" y="370" as="targetPoint" />
          </mxGeometry>
        </mxCell>
        <mxCell id="pHo-uAJ-a0RJnJzjXzOe-8" value="" style="endArrow=classic;html=1;rounded=0;entryX=0.5;entryY=0.035;entryDx=0;entryDy=0;entryPerimeter=0;exitX=0.5;exitY=1;exitDx=0;exitDy=0;" edge="1" parent="1" source="gfehp5p-V9e-1P1ylHKR-36" target="pHo-uAJ-a0RJnJzjXzOe-23">
          <mxGeometry width="50" height="50" relative="1" as="geometry">
            <mxPoint x="647" y="230" as="sourcePoint" />
            <mxPoint x="697" y="180" as="targetPoint" />
          </mxGeometry>
        </mxCell>
        <mxCell id="pHo-uAJ-a0RJnJzjXzOe-9" value="" style="shape=table;startSize=0;container=1;collapsible=0;childLayout=tableLayout;fontSize=16;" vertex="1" parent="1">
          <mxGeometry x="921.5" y="240" width="267" height="40" as="geometry" />
        </mxCell>
        <mxCell id="pHo-uAJ-a0RJnJzjXzOe-10" value="" style="shape=tableRow;horizontal=0;startSize=0;swimlaneHead=0;swimlaneBody=0;strokeColor=inherit;top=0;left=0;bottom=0;right=0;collapsible=0;dropTarget=0;fillColor=none;points=[[0,0.5],[1,0.5]];portConstraint=eastwest;fontSize=16;" vertex="1" parent="pHo-uAJ-a0RJnJzjXzOe-9">
          <mxGeometry width="267" height="40" as="geometry" />
        </mxCell>
        <mxCell id="pHo-uAJ-a0RJnJzjXzOe-11" value="" style="shape=partialRectangle;html=1;whiteSpace=wrap;connectable=0;strokeColor=inherit;overflow=hidden;fillColor=none;top=0;left=0;bottom=0;right=0;pointerEvents=1;fontSize=16;" vertex="1" parent="pHo-uAJ-a0RJnJzjXzOe-10">
          <mxGeometry width="15" height="40" as="geometry">
            <mxRectangle width="15" height="40" as="alternateBounds" />
          </mxGeometry>
        </mxCell>
        <mxCell id="pHo-uAJ-a0RJnJzjXzOe-12" value="56" style="shape=partialRectangle;html=1;whiteSpace=wrap;connectable=0;strokeColor=inherit;overflow=hidden;fillColor=none;top=0;left=0;bottom=0;right=0;pointerEvents=1;fontSize=16;" vertex="1" parent="pHo-uAJ-a0RJnJzjXzOe-10">
          <mxGeometry x="15" width="48" height="40" as="geometry">
            <mxRectangle width="48" height="40" as="alternateBounds" />
          </mxGeometry>
        </mxCell>
        <mxCell id="pHo-uAJ-a0RJnJzjXzOe-13" value="" style="shape=partialRectangle;html=1;whiteSpace=wrap;connectable=0;strokeColor=inherit;overflow=hidden;fillColor=none;top=0;left=0;bottom=0;right=0;pointerEvents=1;fontSize=16;" vertex="1" parent="pHo-uAJ-a0RJnJzjXzOe-10">
          <mxGeometry x="63" width="15" height="40" as="geometry">
            <mxRectangle width="15" height="40" as="alternateBounds" />
          </mxGeometry>
        </mxCell>
        <mxCell id="pHo-uAJ-a0RJnJzjXzOe-14" value="61" style="shape=partialRectangle;html=1;whiteSpace=wrap;connectable=0;strokeColor=inherit;overflow=hidden;fillColor=none;top=0;left=0;bottom=0;right=0;pointerEvents=1;fontSize=16;" vertex="1" parent="pHo-uAJ-a0RJnJzjXzOe-10">
          <mxGeometry x="78" width="48" height="40" as="geometry">
            <mxRectangle width="48" height="40" as="alternateBounds" />
          </mxGeometry>
        </mxCell>
        <mxCell id="pHo-uAJ-a0RJnJzjXzOe-15" style="shape=partialRectangle;html=1;whiteSpace=wrap;connectable=0;strokeColor=inherit;overflow=hidden;fillColor=none;top=0;left=0;bottom=0;right=0;pointerEvents=1;fontSize=16;" vertex="1" parent="pHo-uAJ-a0RJnJzjXzOe-10">
          <mxGeometry x="126" width="15" height="40" as="geometry">
            <mxRectangle width="15" height="40" as="alternateBounds" />
          </mxGeometry>
        </mxCell>
        <mxCell id="pHo-uAJ-a0RJnJzjXzOe-16" value="" style="shape=partialRectangle;html=1;whiteSpace=wrap;connectable=0;strokeColor=inherit;overflow=hidden;fillColor=none;top=0;left=0;bottom=0;right=0;pointerEvents=1;fontSize=16;" vertex="1" parent="pHo-uAJ-a0RJnJzjXzOe-10">
          <mxGeometry x="141" width="48" height="40" as="geometry">
            <mxRectangle width="48" height="40" as="alternateBounds" />
          </mxGeometry>
        </mxCell>
        <mxCell id="pHo-uAJ-a0RJnJzjXzOe-17" style="shape=partialRectangle;html=1;whiteSpace=wrap;connectable=0;strokeColor=inherit;overflow=hidden;fillColor=none;top=0;left=0;bottom=0;right=0;pointerEvents=1;fontSize=16;" vertex="1" parent="pHo-uAJ-a0RJnJzjXzOe-10">
          <mxGeometry x="189" width="15" height="40" as="geometry">
            <mxRectangle width="15" height="40" as="alternateBounds" />
          </mxGeometry>
        </mxCell>
        <mxCell id="pHo-uAJ-a0RJnJzjXzOe-18" value="" style="shape=partialRectangle;html=1;whiteSpace=wrap;connectable=0;strokeColor=inherit;overflow=hidden;fillColor=none;top=0;left=0;bottom=0;right=0;pointerEvents=1;fontSize=16;" vertex="1" parent="pHo-uAJ-a0RJnJzjXzOe-10">
          <mxGeometry x="204" width="48" height="40" as="geometry">
            <mxRectangle width="48" height="40" as="alternateBounds" />
          </mxGeometry>
        </mxCell>
        <mxCell id="pHo-uAJ-a0RJnJzjXzOe-19" style="shape=partialRectangle;html=1;whiteSpace=wrap;connectable=0;strokeColor=inherit;overflow=hidden;fillColor=none;top=0;left=0;bottom=0;right=0;pointerEvents=1;fontSize=16;" vertex="1" parent="pHo-uAJ-a0RJnJzjXzOe-10">
          <mxGeometry x="252" width="15" height="40" as="geometry">
            <mxRectangle width="15" height="40" as="alternateBounds" />
          </mxGeometry>
        </mxCell>
        <mxCell id="pHo-uAJ-a0RJnJzjXzOe-22" value="" style="shape=table;startSize=0;container=1;collapsible=0;childLayout=tableLayout;fontSize=16;" vertex="1" parent="1">
          <mxGeometry x="840" y="120" width="267" height="40" as="geometry" />
        </mxCell>
        <mxCell id="pHo-uAJ-a0RJnJzjXzOe-23" value="" style="shape=tableRow;horizontal=0;startSize=0;swimlaneHead=0;swimlaneBody=0;strokeColor=inherit;top=0;left=0;bottom=0;right=0;collapsible=0;dropTarget=0;fillColor=none;points=[[0,0.5],[1,0.5]];portConstraint=eastwest;fontSize=16;" vertex="1" parent="pHo-uAJ-a0RJnJzjXzOe-22">
          <mxGeometry width="267" height="40" as="geometry" />
        </mxCell>
        <mxCell id="pHo-uAJ-a0RJnJzjXzOe-24" value="" style="shape=partialRectangle;html=1;whiteSpace=wrap;connectable=0;strokeColor=inherit;overflow=hidden;fillColor=none;top=0;left=0;bottom=0;right=0;pointerEvents=1;fontSize=16;" vertex="1" parent="pHo-uAJ-a0RJnJzjXzOe-23">
          <mxGeometry width="15" height="40" as="geometry">
            <mxRectangle width="15" height="40" as="alternateBounds" />
          </mxGeometry>
        </mxCell>
        <mxCell id="pHo-uAJ-a0RJnJzjXzOe-25" value="50" style="shape=partialRectangle;html=1;whiteSpace=wrap;connectable=0;strokeColor=inherit;overflow=hidden;fillColor=none;top=0;left=0;bottom=0;right=0;pointerEvents=1;fontSize=16;" vertex="1" parent="pHo-uAJ-a0RJnJzjXzOe-23">
          <mxGeometry x="15" width="48" height="40" as="geometry">
            <mxRectangle width="48" height="40" as="alternateBounds" />
          </mxGeometry>
        </mxCell>
        <mxCell id="pHo-uAJ-a0RJnJzjXzOe-26" value="" style="shape=partialRectangle;html=1;whiteSpace=wrap;connectable=0;strokeColor=inherit;overflow=hidden;fillColor=none;top=0;left=0;bottom=0;right=0;pointerEvents=1;fontSize=16;" vertex="1" parent="pHo-uAJ-a0RJnJzjXzOe-23">
          <mxGeometry x="63" width="15" height="40" as="geometry">
            <mxRectangle width="15" height="40" as="alternateBounds" />
          </mxGeometry>
        </mxCell>
        <mxCell id="pHo-uAJ-a0RJnJzjXzOe-27" value="" style="shape=partialRectangle;html=1;whiteSpace=wrap;connectable=0;strokeColor=inherit;overflow=hidden;fillColor=none;top=0;left=0;bottom=0;right=0;pointerEvents=1;fontSize=16;" vertex="1" parent="pHo-uAJ-a0RJnJzjXzOe-23">
          <mxGeometry x="78" width="48" height="40" as="geometry">
            <mxRectangle width="48" height="40" as="alternateBounds" />
          </mxGeometry>
        </mxCell>
        <mxCell id="pHo-uAJ-a0RJnJzjXzOe-28" style="shape=partialRectangle;html=1;whiteSpace=wrap;connectable=0;strokeColor=inherit;overflow=hidden;fillColor=none;top=0;left=0;bottom=0;right=0;pointerEvents=1;fontSize=16;" vertex="1" parent="pHo-uAJ-a0RJnJzjXzOe-23">
          <mxGeometry x="126" width="15" height="40" as="geometry">
            <mxRectangle width="15" height="40" as="alternateBounds" />
          </mxGeometry>
        </mxCell>
        <mxCell id="pHo-uAJ-a0RJnJzjXzOe-29" value="" style="shape=partialRectangle;html=1;whiteSpace=wrap;connectable=0;strokeColor=inherit;overflow=hidden;fillColor=none;top=0;left=0;bottom=0;right=0;pointerEvents=1;fontSize=16;" vertex="1" parent="pHo-uAJ-a0RJnJzjXzOe-23">
          <mxGeometry x="141" width="48" height="40" as="geometry">
            <mxRectangle width="48" height="40" as="alternateBounds" />
          </mxGeometry>
        </mxCell>
        <mxCell id="pHo-uAJ-a0RJnJzjXzOe-30" style="shape=partialRectangle;html=1;whiteSpace=wrap;connectable=0;strokeColor=inherit;overflow=hidden;fillColor=none;top=0;left=0;bottom=0;right=0;pointerEvents=1;fontSize=16;" vertex="1" parent="pHo-uAJ-a0RJnJzjXzOe-23">
          <mxGeometry x="189" width="15" height="40" as="geometry">
            <mxRectangle width="15" height="40" as="alternateBounds" />
          </mxGeometry>
        </mxCell>
        <mxCell id="pHo-uAJ-a0RJnJzjXzOe-31" value="" style="shape=partialRectangle;html=1;whiteSpace=wrap;connectable=0;strokeColor=inherit;overflow=hidden;fillColor=none;top=0;left=0;bottom=0;right=0;pointerEvents=1;fontSize=16;" vertex="1" parent="pHo-uAJ-a0RJnJzjXzOe-23">
          <mxGeometry x="204" width="48" height="40" as="geometry">
            <mxRectangle width="48" height="40" as="alternateBounds" />
          </mxGeometry>
        </mxCell>
        <mxCell id="pHo-uAJ-a0RJnJzjXzOe-32" style="shape=partialRectangle;html=1;whiteSpace=wrap;connectable=0;strokeColor=inherit;overflow=hidden;fillColor=none;top=0;left=0;bottom=0;right=0;pointerEvents=1;fontSize=16;" vertex="1" parent="pHo-uAJ-a0RJnJzjXzOe-23">
          <mxGeometry x="252" width="15" height="40" as="geometry">
            <mxRectangle width="15" height="40" as="alternateBounds" />
          </mxGeometry>
        </mxCell>
        <mxCell id="pHo-uAJ-a0RJnJzjXzOe-33" value="" style="endArrow=classic;html=1;rounded=0;exitX=0.027;exitY=0.995;exitDx=0;exitDy=0;exitPerimeter=0;entryX=0.505;entryY=-0.005;entryDx=0;entryDy=0;entryPerimeter=0;" edge="1" parent="1" source="pHo-uAJ-a0RJnJzjXzOe-23" target="gfehp5p-V9e-1P1ylHKR-2">
          <mxGeometry width="50" height="50" relative="1" as="geometry">
            <mxPoint x="980" y="190" as="sourcePoint" />
            <mxPoint x="1030" y="140" as="targetPoint" />
          </mxGeometry>
        </mxCell>
        <mxCell id="pHo-uAJ-a0RJnJzjXzOe-34" value="" style="endArrow=classic;html=1;rounded=0;exitX=0.267;exitY=0.995;exitDx=0;exitDy=0;exitPerimeter=0;entryX=0.495;entryY=-0.005;entryDx=0;entryDy=0;entryPerimeter=0;" edge="1" parent="1" source="pHo-uAJ-a0RJnJzjXzOe-23" target="pHo-uAJ-a0RJnJzjXzOe-10">
          <mxGeometry width="50" height="50" relative="1" as="geometry">
            <mxPoint x="980" y="190" as="sourcePoint" />
            <mxPoint x="1030" y="140" as="targetPoint" />
          </mxGeometry>
        </mxCell>
        <mxCell id="pHo-uAJ-a0RJnJzjXzOe-35" value="&lt;font style=&quot;font-size: 16px;&quot;&gt;&lt;b&gt;......&lt;/b&gt;&lt;br&gt;&lt;/font&gt;" style="text;html=1;strokeColor=none;fillColor=none;align=center;verticalAlign=middle;whiteSpace=wrap;rounded=0;" vertex="1" parent="1">
          <mxGeometry x="1310" y="365" width="60" height="30" as="geometry" />
        </mxCell>
        <mxCell id="pHo-uAJ-a0RJnJzjXzOe-36" value="&lt;font style=&quot;font-size: 16px;&quot;&gt;&lt;b&gt;......&lt;/b&gt;&lt;br&gt;&lt;/font&gt;" style="text;html=1;strokeColor=none;fillColor=none;align=center;verticalAlign=middle;whiteSpace=wrap;rounded=0;" vertex="1" parent="1">
          <mxGeometry x="960" y="280" width="60" height="30" as="geometry" />
        </mxCell>
        <mxCell id="pHo-uAJ-a0RJnJzjXzOe-37" value="&lt;font style=&quot;font-size: 16px;&quot;&gt;&lt;b&gt;......&lt;/b&gt;&lt;br&gt;&lt;/font&gt;" style="text;html=1;strokeColor=none;fillColor=none;align=center;verticalAlign=middle;whiteSpace=wrap;rounded=0;" vertex="1" parent="1">
          <mxGeometry x="1025" y="280" width="60" height="30" as="geometry" />
        </mxCell>
      </root>
    </mxGraphModel>
  </diagram>
</mxfile>
